<svg width="29" height="29" viewBox="0 0 29 29" fill="none" xmlns="http://www.w3.org/2000/svg">
<rect width="29" height="29" fill="white" fill-opacity="0.01"/>
<path fill-rule="evenodd" clip-rule="evenodd" d="M5.41333 1.93335L5.31603 1.93329C4.87436 1.93287 4.49362 1.9325 4.15633 2.01348C3.09596 2.26804 2.26803 3.09597 2.01347 4.15635C1.93249 4.49364 1.93285 4.87437 1.93327 5.31604L1.93333 5.41335V10.0533L1.93327 10.1506C1.93285 10.5923 1.93249 10.9731 2.01347 11.3103C2.26803 12.3707 3.09596 13.1986 4.15633 13.4532C4.49362 13.5342 4.87436 13.5338 5.31603 13.5334L5.41333 13.5333H10.0533L10.1506 13.5334C10.5923 13.5338 10.9731 13.5342 11.3103 13.4532C12.3707 13.1986 13.1986 12.3707 13.4532 11.3103C13.5342 10.9731 13.5338 10.5923 13.5334 10.1506L13.5333 10.0533V5.41335L13.5334 5.31604C13.5338 4.87437 13.5342 4.49364 13.4532 4.15635C13.1986 3.09597 12.3707 2.26804 11.3103 2.01348C10.9731 1.9325 10.5923 1.93287 10.1506 1.93329L10.0533 1.93335H5.41333ZM4.60767 3.8934C4.69088 3.87341 4.81829 3.86668 5.41333 3.86668H10.0533C10.6484 3.86668 10.7758 3.87341 10.859 3.8934C11.2125 3.97825 11.4884 4.25422 11.5733 4.60769C11.5933 4.6909 11.6 4.8183 11.6 5.41335V10.0533C11.6 10.6484 11.5933 10.7758 11.5733 10.859C11.4884 11.2125 11.2125 11.4884 10.859 11.5733C10.7758 11.5933 10.6484 11.6 10.0533 11.6H5.41333C4.81829 11.6 4.69088 11.5933 4.60767 11.5733C4.2542 11.4884 3.97824 11.2125 3.89338 10.859C3.87339 10.7758 3.86666 10.6484 3.86666 10.0533V5.41335C3.86666 4.8183 3.87339 4.6909 3.89338 4.60769C3.97824 4.25422 4.2542 3.97825 4.60767 3.8934ZM18.9467 1.93335L18.8494 1.93329C18.4077 1.93287 18.027 1.9325 17.6897 2.01348C16.6293 2.26804 15.8014 3.09597 15.5468 4.15635C15.4658 4.49364 15.4662 4.87437 15.4666 5.31604L15.4667 5.41335V10.0533L15.4666 10.1506C15.4662 10.5923 15.4658 10.9731 15.5468 11.3103C15.8014 12.3707 16.6293 13.1986 17.6897 13.4532C18.027 13.5342 18.4077 13.5338 18.8494 13.5334L18.9467 13.5333H23.5867L23.6839 13.5334C24.1257 13.5338 24.5063 13.5342 24.8437 13.4532C25.904 13.1986 26.732 12.3707 26.9866 11.3103C27.0674 10.9731 27.0672 10.5923 27.0667 10.1506V10.0533V5.41335V5.31604C27.0672 4.87437 27.0674 4.49364 26.9866 4.15635C26.732 3.09597 25.904 2.26804 24.8437 2.01348C24.5063 1.9325 24.1257 1.93287 23.6839 1.93329L23.5867 1.93335H18.9467ZM18.141 3.8934C18.2242 3.87341 18.3516 3.86668 18.9467 3.86668H23.5867C24.1817 3.86668 24.3091 3.87341 24.3923 3.8934C24.7457 3.97825 25.0218 4.25422 25.1067 4.60769C25.1266 4.6909 25.1333 4.8183 25.1333 5.41335V10.0533C25.1333 10.6484 25.1266 10.7758 25.1067 10.859C25.0218 11.2125 24.7457 11.4884 24.3923 11.5733C24.3091 11.5933 24.1817 11.6 23.5867 11.6H18.9467C18.3516 11.6 18.2242 11.5933 18.141 11.5733C17.7875 11.4884 17.5116 11.2125 17.4267 10.859C17.4067 10.7758 17.4 10.6484 17.4 10.0533V5.41335C17.4 4.8183 17.4067 4.6909 17.4267 4.60769C17.5116 4.25422 17.7875 3.97825 18.141 3.8934ZM5.31603 15.4666L5.41333 15.4667H10.0533L10.1506 15.4666C10.5923 15.4662 10.9731 15.4658 11.3103 15.5468C12.3707 15.8014 13.1986 16.6293 13.4532 17.6897C13.5342 18.027 13.5338 18.4077 13.5334 18.8494L13.5333 18.9467V23.5867L13.5334 23.6839C13.5338 24.1257 13.5342 24.5064 13.4532 24.8437C13.1986 25.904 12.3707 26.732 11.3103 26.9866C10.9731 27.0675 10.5923 27.0673 10.1506 27.0667H10.0533H5.41333H5.31603C4.87436 27.0673 4.49362 27.0675 4.15633 26.9866C3.09596 26.732 2.26803 25.904 2.01347 24.8437C1.93249 24.5064 1.93285 24.1257 1.93327 23.6839L1.93333 23.5867V18.9467L1.93327 18.8494C1.93285 18.4077 1.93249 18.027 2.01347 17.6897C2.26803 16.6293 3.09596 15.8014 4.15633 15.5468C4.49362 15.4658 4.87436 15.4662 5.31603 15.4666ZM5.41333 17.4C4.81829 17.4 4.69088 17.4067 4.60767 17.4267C4.2542 17.5116 3.97824 17.7875 3.89338 18.141C3.87339 18.2242 3.86666 18.3516 3.86666 18.9467V23.5867C3.86666 24.1818 3.87339 24.3092 3.89338 24.3923C3.97824 24.7457 4.2542 25.0218 4.60767 25.1067C4.69088 25.1266 4.81829 25.1333 5.41333 25.1333H10.0533C10.6484 25.1333 10.7758 25.1266 10.859 25.1067C11.2125 25.0218 11.4884 24.7457 11.5733 24.3923C11.5933 24.3092 11.6 24.1818 11.6 23.5867V18.9467C11.6 18.3516 11.5933 18.2242 11.5733 18.141C11.4884 17.7875 11.2125 17.5116 10.859 17.4267C10.7758 17.4067 10.6484 17.4 10.0533 17.4H5.41333ZM18.9467 15.4667L18.8494 15.4666C18.4077 15.4662 18.027 15.4658 17.6897 15.5468C16.6293 15.8014 15.8014 16.6293 15.5468 17.6897C15.4658 18.027 15.4662 18.4077 15.4666 18.8494L15.4667 18.9467V23.5867L15.4666 23.6839C15.4662 24.1257 15.4658 24.5064 15.5468 24.8437C15.8014 25.904 16.6293 26.732 17.6897 26.9866C18.027 27.0675 18.4077 27.0673 18.8494 27.0667H18.9467H23.5867H23.6839C24.1257 27.0673 24.5063 27.0675 24.8437 26.9866C25.904 26.732 26.732 25.904 26.9866 24.8437C27.0674 24.5064 27.0672 24.1257 27.0667 23.6839V23.5867V18.9467V18.8494C27.0672 18.4077 27.0674 18.027 26.9866 17.6897C26.732 16.6293 25.904 15.8014 24.8437 15.5468C24.5063 15.4658 24.1257 15.4662 23.6839 15.4666L23.5867 15.4667H18.9467ZM18.141 17.4267C18.2242 17.4067 18.3516 17.4 18.9467 17.4H23.5867C24.1817 17.4 24.3091 17.4067 24.3923 17.4267C24.7457 17.5116 25.0218 17.7875 25.1067 18.141C25.1266 18.2242 25.1333 18.3516 25.1333 18.9467V23.5867C25.1333 24.1818 25.1266 24.3092 25.1067 24.3923C25.0218 24.7457 24.7457 25.0218 24.3923 25.1067C24.3091 25.1266 24.1817 25.1333 23.5867 25.1333H18.9467C18.3516 25.1333 18.2242 25.1266 18.141 25.1067C17.7875 25.0218 17.5116 24.7457 17.4267 24.3923C17.4067 24.3092 17.4 24.1818 17.4 23.5867V18.9467C17.4 18.3516 17.4067 18.2242 17.4267 18.141C17.5116 17.7875 17.7875 17.5116 18.141 17.4267Z" fill="white" fill-opacity="0.3"/>
</svg>
