<svg width="29" height="29" viewBox="0 0 29 29" fill="none" xmlns="http://www.w3.org/2000/svg">
<rect width="29" height="29" fill="white" fill-opacity="0.01"/>
<path fill-rule="evenodd" clip-rule="evenodd" d="M13.2502 7.45021L14.7969 5.9035C16.043 4.65743 18.2286 3.79267 20.4005 3.48243C21.4708 3.32954 22.4829 3.32003 23.309 3.44374C24.1642 3.57181 24.6883 3.82214 24.9332 4.06691C25.178 4.31169 25.4284 4.83576 25.5564 5.69091C25.6801 6.51701 25.6706 7.52917 25.5177 8.5995C25.2074 10.7714 24.3426 12.957 23.0964 14.2032L14.5 22.7996L12.2835 20.5832C11.906 20.2057 11.2939 20.2057 10.9164 20.5832C10.5389 20.9606 10.5389 21.5727 10.9164 21.9503L13.8165 24.8503C14.194 25.2277 14.806 25.2277 15.1835 24.8503L16.2414 23.7924L18.5044 27.5639C18.6576 27.8193 18.9198 27.9897 19.2152 28.0262C19.5106 28.0625 19.8064 27.9607 20.0168 27.7503L23.8834 23.8836C24.0986 23.6685 24.1999 23.3645 24.157 23.0633L23.2586 16.7751L24.4636 15.5702C26.1174 13.9163 27.0893 11.2685 27.4315 8.87291C27.6049 7.65949 27.6256 6.45439 27.4684 5.40457C27.3155 4.38381 26.9737 3.37333 26.3001 2.69982C25.6267 2.02632 24.6162 1.68459 23.5954 1.53172C22.5456 1.37451 21.3405 1.39519 20.127 1.56853C17.7314 1.91074 15.0837 2.88261 13.4298 4.53642L12.2249 5.74139L5.93671 4.84309C5.63551 4.80005 5.33161 4.90134 5.11647 5.1165L1.24981 8.98315C1.03932 9.19365 0.937547 9.48937 0.973917 9.78481C1.01029 10.0802 1.18075 10.3425 1.436 10.4956L5.20771 12.7586L4.14982 13.8165C3.96855 13.9978 3.86671 14.2437 3.86671 14.5C3.86671 14.7564 3.96855 15.0023 4.14982 15.1836L7.04984 18.0836C7.42735 18.4611 8.0394 18.4611 8.4169 18.0836C8.79443 17.7061 8.79443 17.094 8.4169 16.7165L6.20043 14.5L7.45024 13.2502L13.2502 7.45021ZM19.5253 25.5076L17.6505 22.3832L21.5497 18.484L22.1748 22.8582L19.5253 25.5076ZM6.61685 11.3495L10.5161 7.45023L6.14178 6.82534L3.49234 9.47478L6.61685 11.3495ZM4.55022 20.0168C4.92772 19.6394 4.92772 19.0273 4.55022 18.6498C4.17271 18.2723 3.56064 18.2723 3.18314 18.6498L1.24981 20.5831C0.872297 20.9606 0.872297 21.5727 1.24981 21.9501C1.62731 22.3277 2.23938 22.3277 2.61688 21.9501L4.55022 20.0168ZM7.45026 22.917C7.82776 22.5394 7.82778 21.9273 7.45028 21.5499C7.07277 21.1723 6.46072 21.1723 6.0832 21.5499L2.21647 25.4164C1.83897 25.794 1.83896 26.4061 2.21647 26.7835C2.59397 27.161 3.20603 27.161 3.58353 26.7836L7.45026 22.917ZM10.3502 25.8168C10.7277 25.4394 10.7277 24.8273 10.3502 24.4497C9.97272 24.0723 9.36064 24.0723 8.98314 24.4497L7.0498 26.3831C6.6723 26.7606 6.6723 27.3727 7.0498 27.7501C7.42731 28.1277 8.03938 28.1277 8.41688 27.7501L10.3502 25.8168ZM18.3666 13.0477C19.7001 13.0477 20.781 11.9668 20.781 10.6333C20.781 9.29993 19.7001 8.21896 18.3666 8.21896C17.0332 8.21896 15.9522 9.29993 15.9522 10.6333C15.9522 11.9668 17.0332 13.0477 18.3666 13.0477Z" fill="white" fill-opacity="0.3"/>
</svg>
