<svg width="29" height="29" viewBox="0 0 29 29" fill="none" xmlns="http://www.w3.org/2000/svg">
<rect width="29" height="29" fill="white" fill-opacity="0.01"/>
<path fill-rule="evenodd" clip-rule="evenodd" d="M13.6705 1.25708C12.9029 1.25708 12.2376 1.78847 12.0678 2.53709L11.6075 4.56739C10.8748 4.78049 10.1758 5.0723 9.52043 5.43287L7.75914 4.3226C7.1098 3.91327 6.26358 4.00798 5.72079 4.55075L4.54902 5.72254C4.00625 6.26531 3.91152 7.11153 4.32087 7.76087L5.43155 9.5228C5.07127 10.178 4.77972 10.8768 4.56684 11.6093L2.53671 12.0695C1.78811 12.2392 1.25671 12.9046 1.25671 13.6722V15.3293C1.25671 16.0969 1.78811 16.7622 2.53671 16.932L4.56708 17.3923C4.78009 18.125 5.07181 18.8239 5.43226 19.4793L4.32177 21.2409C3.91243 21.8901 4.00716 22.7363 4.54993 23.2792L5.72172 24.451C6.26448 24.9937 7.1107 25.0884 7.76005 24.6791L9.52178 23.5686C10.1768 23.9288 10.8753 24.2204 11.6075 24.4332L12.0678 26.4636C12.2376 27.2122 12.9029 27.7437 13.6705 27.7437H15.3276C16.0952 27.7437 16.7606 27.2122 16.9303 26.4636L17.3904 24.434C18.1233 24.2211 18.8224 23.9294 19.4779 23.569L21.2396 24.6795C21.8888 25.0888 22.735 24.9941 23.2779 24.4514L24.4497 23.2796C24.9924 22.7367 25.0871 21.8905 24.6778 21.2413L23.5677 19.4802C23.9285 18.8246 24.2204 18.1252 24.4335 17.3921L26.4633 16.932C27.2119 16.7622 27.7433 16.0969 27.7433 15.3293V13.6722C27.7433 12.9046 27.2119 12.2392 26.4633 12.0695L24.4337 11.6094C24.2208 10.8765 23.9291 10.1773 23.5685 9.52175L24.6786 7.76049C25.0881 7.11114 24.9934 6.26492 24.4505 5.72214L23.2787 4.55036C22.736 4.0076 21.8898 3.91287 21.2404 4.32221L19.4793 5.43241C18.8234 5.07163 18.1238 4.77971 17.3904 4.56666L16.9303 2.53709C16.7606 1.78847 16.0952 1.25708 15.3276 1.25708H13.6705ZM9.51303 7.37081C10.5313 6.65717 11.7095 6.15615 12.9832 5.93217L13.6705 2.90042H15.3276L16.0149 5.93173C17.2892 6.15544 18.468 6.65646 19.4868 7.37028L22.1168 5.71237L23.2885 6.88415L21.6305 9.51422C22.3441 10.5327 22.845 11.7111 23.0687 12.985L26.1 13.6722V15.3293L23.0685 16.0165C22.8447 17.2906 22.3435 18.4691 21.6297 19.4876L23.2876 22.1177L22.1158 23.2893L19.4855 21.6312C18.467 22.3446 17.2887 22.8454 16.0149 23.0691L15.3276 26.1003H13.6705L12.9832 23.0685C11.71 22.8446 10.5323 22.3439 9.51424 21.6307L6.88373 23.2889L5.71194 22.1171L7.37012 19.4868C6.65666 18.4684 6.15579 17.2903 5.93195 16.0167L2.90004 15.3293V13.6722L5.93182 12.9848C6.1555 11.7114 6.65614 10.5334 7.36931 9.51514L5.71103 6.88455L6.88282 5.71278L9.51303 7.37081ZM17.4483 14.5001C17.4483 16.1283 16.1283 17.4483 14.5001 17.4483C12.8719 17.4483 11.5519 16.1283 11.5519 14.5001C11.5519 12.8719 12.8719 11.5519 14.5001 11.5519C16.1283 11.5519 17.4483 12.8719 17.4483 14.5001ZM19.1883 14.5001C19.1883 17.0893 17.0893 19.1883 14.5001 19.1883C11.9109 19.1883 9.81192 17.0893 9.81192 14.5001C9.81192 11.9109 11.9109 9.81193 14.5001 9.81193C17.0893 9.81193 19.1883 11.9109 19.1883 14.5001Z" fill="white" fill-opacity="0.3"/>
</svg>
